<mxfile host="app.diagrams.net" agent="Mozilla/5.0 (Macintosh; Intel Mac OS X 10_15_7) AppleWebKit/537.36 (KHTML, like Gecko) Chrome/129.0.0.0 Safari/537.36" version="24.7.16">
  <diagram name="Page-1" id="SWFWg1isaqerkOjDUX5i">
    <mxGraphModel dx="2299" dy="1082" grid="1" gridSize="10" guides="1" tooltips="1" connect="1" arrows="1" fold="1" page="1" pageScale="1" pageWidth="850" pageHeight="1100" math="0" shadow="0">
      <root>
        <mxCell id="0" />
        <mxCell id="1" parent="0" />
        <mxCell id="_Rf_vzawGqCmXAYVloRy-230" value="" style="rounded=0;whiteSpace=wrap;html=1;strokeWidth=4;" vertex="1" parent="1">
          <mxGeometry x="-200" y="180" width="1080" height="480" as="geometry" />
        </mxCell>
        <mxCell id="_Rf_vzawGqCmXAYVloRy-2" value="" style="endArrow=classic;html=1;rounded=0;strokeColor=#0a0a0a;strokeWidth=3;endFill=1;" edge="1" parent="1">
          <mxGeometry width="50" height="50" relative="1" as="geometry">
            <mxPoint x="175" y="290" as="sourcePoint" />
            <mxPoint x="195" y="250" as="targetPoint" />
          </mxGeometry>
        </mxCell>
        <mxCell id="_Rf_vzawGqCmXAYVloRy-3" value="" style="endArrow=none;html=1;rounded=0;strokeColor=#0a0a0a;strokeWidth=3;" edge="1" parent="1">
          <mxGeometry width="50" height="50" relative="1" as="geometry">
            <mxPoint x="195" y="250" as="sourcePoint" />
            <mxPoint x="235" y="250" as="targetPoint" />
          </mxGeometry>
        </mxCell>
        <mxCell id="_Rf_vzawGqCmXAYVloRy-4" value="" style="endArrow=none;html=1;rounded=0;strokeColor=#0a0a0a;strokeWidth=3;" edge="1" parent="1">
          <mxGeometry width="50" height="50" relative="1" as="geometry">
            <mxPoint x="255" y="290" as="sourcePoint" />
            <mxPoint x="235" y="250" as="targetPoint" />
          </mxGeometry>
        </mxCell>
        <mxCell id="_Rf_vzawGqCmXAYVloRy-5" value="" style="endArrow=none;html=1;rounded=0;strokeColor=#0a0a0a;strokeWidth=3;" edge="1" parent="1">
          <mxGeometry width="50" height="50" relative="1" as="geometry">
            <mxPoint x="255" y="290" as="sourcePoint" />
            <mxPoint x="295" y="290" as="targetPoint" />
          </mxGeometry>
        </mxCell>
        <mxCell id="_Rf_vzawGqCmXAYVloRy-6" value="" style="endArrow=classic;html=1;rounded=0;strokeColor=#0a0a0a;strokeWidth=3;endFill=1;" edge="1" parent="1">
          <mxGeometry width="50" height="50" relative="1" as="geometry">
            <mxPoint x="295" y="290" as="sourcePoint" />
            <mxPoint x="315" y="250" as="targetPoint" />
          </mxGeometry>
        </mxCell>
        <mxCell id="_Rf_vzawGqCmXAYVloRy-7" value="" style="endArrow=none;html=1;rounded=0;strokeColor=#0a0a0a;strokeWidth=3;" edge="1" parent="1">
          <mxGeometry width="50" height="50" relative="1" as="geometry">
            <mxPoint x="315" y="250" as="sourcePoint" />
            <mxPoint x="355" y="250" as="targetPoint" />
          </mxGeometry>
        </mxCell>
        <mxCell id="_Rf_vzawGqCmXAYVloRy-8" value="" style="endArrow=none;html=1;rounded=0;strokeColor=#0a0a0a;strokeWidth=3;" edge="1" parent="1">
          <mxGeometry width="50" height="50" relative="1" as="geometry">
            <mxPoint x="375" y="290" as="sourcePoint" />
            <mxPoint x="355" y="250" as="targetPoint" />
          </mxGeometry>
        </mxCell>
        <mxCell id="_Rf_vzawGqCmXAYVloRy-9" value="" style="endArrow=none;html=1;rounded=0;strokeColor=#0a0a0a;strokeWidth=3;" edge="1" parent="1">
          <mxGeometry width="50" height="50" relative="1" as="geometry">
            <mxPoint x="375" y="290" as="sourcePoint" />
            <mxPoint x="415" y="290" as="targetPoint" />
          </mxGeometry>
        </mxCell>
        <mxCell id="_Rf_vzawGqCmXAYVloRy-10" value="" style="endArrow=classic;html=1;rounded=0;strokeColor=#0a0a0a;strokeWidth=3;endFill=1;" edge="1" parent="1">
          <mxGeometry width="50" height="50" relative="1" as="geometry">
            <mxPoint x="415" y="290" as="sourcePoint" />
            <mxPoint x="435" y="250" as="targetPoint" />
          </mxGeometry>
        </mxCell>
        <mxCell id="_Rf_vzawGqCmXAYVloRy-11" value="" style="endArrow=none;html=1;rounded=0;strokeColor=#0a0a0a;strokeWidth=3;" edge="1" parent="1">
          <mxGeometry width="50" height="50" relative="1" as="geometry">
            <mxPoint x="435" y="250" as="sourcePoint" />
            <mxPoint x="475" y="250" as="targetPoint" />
          </mxGeometry>
        </mxCell>
        <mxCell id="_Rf_vzawGqCmXAYVloRy-12" value="" style="endArrow=none;html=1;rounded=0;strokeColor=#0a0a0a;strokeWidth=3;" edge="1" parent="1">
          <mxGeometry width="50" height="50" relative="1" as="geometry">
            <mxPoint x="495" y="290" as="sourcePoint" />
            <mxPoint x="475" y="250" as="targetPoint" />
          </mxGeometry>
        </mxCell>
        <mxCell id="_Rf_vzawGqCmXAYVloRy-13" value="" style="endArrow=none;html=1;rounded=0;strokeColor=#0a0a0a;strokeWidth=3;" edge="1" parent="1">
          <mxGeometry width="50" height="50" relative="1" as="geometry">
            <mxPoint x="495" y="290" as="sourcePoint" />
            <mxPoint x="535" y="290" as="targetPoint" />
          </mxGeometry>
        </mxCell>
        <mxCell id="_Rf_vzawGqCmXAYVloRy-14" value="" style="endArrow=classic;html=1;rounded=0;strokeColor=#0a0a0a;strokeWidth=3;endFill=1;" edge="1" parent="1">
          <mxGeometry width="50" height="50" relative="1" as="geometry">
            <mxPoint x="535" y="290" as="sourcePoint" />
            <mxPoint x="555" y="250" as="targetPoint" />
          </mxGeometry>
        </mxCell>
        <mxCell id="_Rf_vzawGqCmXAYVloRy-15" value="" style="endArrow=none;html=1;rounded=0;strokeColor=#0a0a0a;strokeWidth=3;" edge="1" parent="1">
          <mxGeometry width="50" height="50" relative="1" as="geometry">
            <mxPoint x="555" y="250" as="sourcePoint" />
            <mxPoint x="595" y="250" as="targetPoint" />
          </mxGeometry>
        </mxCell>
        <mxCell id="_Rf_vzawGqCmXAYVloRy-16" value="" style="endArrow=none;html=1;rounded=0;strokeColor=#0a0a0a;strokeWidth=3;" edge="1" parent="1">
          <mxGeometry width="50" height="50" relative="1" as="geometry">
            <mxPoint x="615" y="290" as="sourcePoint" />
            <mxPoint x="595" y="250" as="targetPoint" />
          </mxGeometry>
        </mxCell>
        <mxCell id="_Rf_vzawGqCmXAYVloRy-17" value="" style="endArrow=none;html=1;rounded=0;strokeColor=#0a0a0a;strokeWidth=3;" edge="1" parent="1">
          <mxGeometry width="50" height="50" relative="1" as="geometry">
            <mxPoint x="615" y="290" as="sourcePoint" />
            <mxPoint x="655" y="290" as="targetPoint" />
          </mxGeometry>
        </mxCell>
        <mxCell id="_Rf_vzawGqCmXAYVloRy-19" value="" style="endArrow=none;html=1;rounded=0;strokeColor=#0a0a0a;strokeWidth=3;" edge="1" parent="1">
          <mxGeometry width="50" height="50" relative="1" as="geometry">
            <mxPoint x="135" y="290" as="sourcePoint" />
            <mxPoint x="175" y="290" as="targetPoint" />
          </mxGeometry>
        </mxCell>
        <mxCell id="_Rf_vzawGqCmXAYVloRy-20" value="" style="endArrow=none;html=1;rounded=0;strokeColor=#0a0a0a;strokeWidth=3;dashed=1;" edge="1" parent="1">
          <mxGeometry width="50" height="50" relative="1" as="geometry">
            <mxPoint x="136" y="250" as="sourcePoint" />
            <mxPoint x="176" y="250" as="targetPoint" />
          </mxGeometry>
        </mxCell>
        <mxCell id="_Rf_vzawGqCmXAYVloRy-21" value="" style="endArrow=none;html=1;rounded=0;strokeColor=#0a0a0a;strokeWidth=3;dashed=1;" edge="1" parent="1">
          <mxGeometry width="50" height="50" relative="1" as="geometry">
            <mxPoint x="196" y="290" as="sourcePoint" />
            <mxPoint x="176" y="250" as="targetPoint" />
          </mxGeometry>
        </mxCell>
        <mxCell id="_Rf_vzawGqCmXAYVloRy-22" value="" style="endArrow=none;html=1;rounded=0;strokeColor=#0a0a0a;strokeWidth=3;dashed=1;" edge="1" parent="1">
          <mxGeometry width="50" height="50" relative="1" as="geometry">
            <mxPoint x="196" y="290" as="sourcePoint" />
            <mxPoint x="236" y="290" as="targetPoint" />
          </mxGeometry>
        </mxCell>
        <mxCell id="_Rf_vzawGqCmXAYVloRy-23" value="" style="endArrow=none;html=1;rounded=0;strokeColor=#0a0a0a;strokeWidth=3;dashed=1;" edge="1" parent="1">
          <mxGeometry width="50" height="50" relative="1" as="geometry">
            <mxPoint x="236" y="290" as="sourcePoint" />
            <mxPoint x="256" y="250" as="targetPoint" />
          </mxGeometry>
        </mxCell>
        <mxCell id="_Rf_vzawGqCmXAYVloRy-24" value="" style="endArrow=none;html=1;rounded=0;strokeColor=#0a0a0a;strokeWidth=3;dashed=1;" edge="1" parent="1">
          <mxGeometry width="50" height="50" relative="1" as="geometry">
            <mxPoint x="256" y="250" as="sourcePoint" />
            <mxPoint x="296" y="250" as="targetPoint" />
          </mxGeometry>
        </mxCell>
        <mxCell id="_Rf_vzawGqCmXAYVloRy-25" value="" style="endArrow=none;html=1;rounded=0;strokeColor=#0a0a0a;strokeWidth=3;dashed=1;" edge="1" parent="1">
          <mxGeometry width="50" height="50" relative="1" as="geometry">
            <mxPoint x="316" y="290" as="sourcePoint" />
            <mxPoint x="296" y="250" as="targetPoint" />
          </mxGeometry>
        </mxCell>
        <mxCell id="_Rf_vzawGqCmXAYVloRy-26" value="" style="endArrow=none;html=1;rounded=0;strokeColor=#0a0a0a;strokeWidth=3;dashed=1;" edge="1" parent="1">
          <mxGeometry width="50" height="50" relative="1" as="geometry">
            <mxPoint x="316" y="290" as="sourcePoint" />
            <mxPoint x="356" y="290" as="targetPoint" />
          </mxGeometry>
        </mxCell>
        <mxCell id="_Rf_vzawGqCmXAYVloRy-27" value="" style="endArrow=none;html=1;rounded=0;strokeColor=#0a0a0a;strokeWidth=3;dashed=1;" edge="1" parent="1">
          <mxGeometry width="50" height="50" relative="1" as="geometry">
            <mxPoint x="356" y="290" as="sourcePoint" />
            <mxPoint x="376" y="250" as="targetPoint" />
          </mxGeometry>
        </mxCell>
        <mxCell id="_Rf_vzawGqCmXAYVloRy-28" value="" style="endArrow=none;html=1;rounded=0;strokeColor=#0a0a0a;strokeWidth=3;dashed=1;" edge="1" parent="1">
          <mxGeometry width="50" height="50" relative="1" as="geometry">
            <mxPoint x="376" y="250" as="sourcePoint" />
            <mxPoint x="416" y="250" as="targetPoint" />
          </mxGeometry>
        </mxCell>
        <mxCell id="_Rf_vzawGqCmXAYVloRy-29" value="" style="endArrow=none;html=1;rounded=0;strokeColor=#0a0a0a;strokeWidth=3;dashed=1;" edge="1" parent="1">
          <mxGeometry width="50" height="50" relative="1" as="geometry">
            <mxPoint x="436" y="290" as="sourcePoint" />
            <mxPoint x="416" y="250" as="targetPoint" />
          </mxGeometry>
        </mxCell>
        <mxCell id="_Rf_vzawGqCmXAYVloRy-30" value="" style="endArrow=none;html=1;rounded=0;strokeColor=#0a0a0a;strokeWidth=3;dashed=1;" edge="1" parent="1">
          <mxGeometry width="50" height="50" relative="1" as="geometry">
            <mxPoint x="436" y="290" as="sourcePoint" />
            <mxPoint x="476" y="290" as="targetPoint" />
          </mxGeometry>
        </mxCell>
        <mxCell id="_Rf_vzawGqCmXAYVloRy-31" value="" style="endArrow=none;html=1;rounded=0;strokeColor=#0a0a0a;strokeWidth=3;dashed=1;" edge="1" parent="1">
          <mxGeometry width="50" height="50" relative="1" as="geometry">
            <mxPoint x="476" y="290" as="sourcePoint" />
            <mxPoint x="496" y="250" as="targetPoint" />
          </mxGeometry>
        </mxCell>
        <mxCell id="_Rf_vzawGqCmXAYVloRy-32" value="" style="endArrow=none;html=1;rounded=0;strokeColor=#0a0a0a;strokeWidth=3;dashed=1;" edge="1" parent="1">
          <mxGeometry width="50" height="50" relative="1" as="geometry">
            <mxPoint x="496" y="250" as="sourcePoint" />
            <mxPoint x="536" y="250" as="targetPoint" />
          </mxGeometry>
        </mxCell>
        <mxCell id="_Rf_vzawGqCmXAYVloRy-33" value="" style="endArrow=none;html=1;rounded=0;strokeColor=#0a0a0a;strokeWidth=3;dashed=1;" edge="1" parent="1">
          <mxGeometry width="50" height="50" relative="1" as="geometry">
            <mxPoint x="556" y="290" as="sourcePoint" />
            <mxPoint x="536" y="250" as="targetPoint" />
          </mxGeometry>
        </mxCell>
        <mxCell id="_Rf_vzawGqCmXAYVloRy-34" value="" style="endArrow=none;html=1;rounded=0;strokeColor=#0a0a0a;strokeWidth=3;dashed=1;" edge="1" parent="1">
          <mxGeometry width="50" height="50" relative="1" as="geometry">
            <mxPoint x="556" y="290" as="sourcePoint" />
            <mxPoint x="596" y="290" as="targetPoint" />
          </mxGeometry>
        </mxCell>
        <mxCell id="_Rf_vzawGqCmXAYVloRy-35" value="" style="endArrow=none;html=1;rounded=0;strokeColor=#0a0a0a;strokeWidth=3;dashed=1;" edge="1" parent="1">
          <mxGeometry width="50" height="50" relative="1" as="geometry">
            <mxPoint x="596" y="290" as="sourcePoint" />
            <mxPoint x="616" y="250" as="targetPoint" />
          </mxGeometry>
        </mxCell>
        <mxCell id="_Rf_vzawGqCmXAYVloRy-36" value="" style="endArrow=none;html=1;rounded=0;strokeColor=#0a0a0a;strokeWidth=3;dashed=1;" edge="1" parent="1">
          <mxGeometry width="50" height="50" relative="1" as="geometry">
            <mxPoint x="615" y="250" as="sourcePoint" />
            <mxPoint x="655" y="250" as="targetPoint" />
          </mxGeometry>
        </mxCell>
        <mxCell id="_Rf_vzawGqCmXAYVloRy-38" value="" style="endArrow=none;html=1;rounded=0;strokeColor=#160160;strokeWidth=3;" edge="1" parent="1">
          <mxGeometry width="50" height="50" relative="1" as="geometry">
            <mxPoint x="164" y="350" as="sourcePoint" />
            <mxPoint x="144" y="310" as="targetPoint" />
          </mxGeometry>
        </mxCell>
        <mxCell id="_Rf_vzawGqCmXAYVloRy-39" value="" style="endArrow=none;html=1;rounded=0;strokeColor=#160160;strokeWidth=3;" edge="1" parent="1">
          <mxGeometry width="50" height="50" relative="1" as="geometry">
            <mxPoint x="163" y="350" as="sourcePoint" />
            <mxPoint x="623" y="350" as="targetPoint" />
          </mxGeometry>
        </mxCell>
        <mxCell id="_Rf_vzawGqCmXAYVloRy-78" value="" style="endArrow=none;html=1;rounded=0;strokeColor=#160160;strokeWidth=3;" edge="1" parent="1">
          <mxGeometry width="50" height="50" relative="1" as="geometry">
            <mxPoint x="624" y="350" as="sourcePoint" />
            <mxPoint x="644" y="310" as="targetPoint" />
          </mxGeometry>
        </mxCell>
        <mxCell id="_Rf_vzawGqCmXAYVloRy-108" value="DQS_c" style="text;html=1;align=center;verticalAlign=middle;whiteSpace=wrap;rounded=0;fontStyle=1" vertex="1" parent="1">
          <mxGeometry x="-130" y="240" width="60" height="20" as="geometry" />
        </mxCell>
        <mxCell id="_Rf_vzawGqCmXAYVloRy-109" value="DQS_t" style="text;html=1;align=center;verticalAlign=middle;whiteSpace=wrap;rounded=0;fontStyle=1" vertex="1" parent="1">
          <mxGeometry x="-130" y="280" width="60" height="20" as="geometry" />
        </mxCell>
        <mxCell id="_Rf_vzawGqCmXAYVloRy-110" value="DQ" style="text;html=1;align=center;verticalAlign=middle;whiteSpace=wrap;rounded=0;fontColor=#160160;fontStyle=1" vertex="1" parent="1">
          <mxGeometry x="-130" y="320" width="60" height="20" as="geometry" />
        </mxCell>
        <mxCell id="_Rf_vzawGqCmXAYVloRy-154" value="UI0" style="text;html=1;align=center;verticalAlign=middle;whiteSpace=wrap;rounded=0;fontColor=#0a0a0a;fontStyle=1;strokeColor=none;" vertex="1" parent="1">
          <mxGeometry x="165" y="320" width="40" height="20" as="geometry" />
        </mxCell>
        <mxCell id="_Rf_vzawGqCmXAYVloRy-155" value="UI1" style="text;html=1;align=center;verticalAlign=middle;whiteSpace=wrap;rounded=0;fontColor=#0a0a0a;fontStyle=1;strokeColor=none;" vertex="1" parent="1">
          <mxGeometry x="225" y="320" width="40" height="20" as="geometry" />
        </mxCell>
        <mxCell id="_Rf_vzawGqCmXAYVloRy-156" value="UI2" style="text;html=1;align=center;verticalAlign=middle;whiteSpace=wrap;rounded=0;fontColor=#0a0a0a;fontStyle=1;strokeColor=none;fillColor=default;" vertex="1" parent="1">
          <mxGeometry x="285" y="320" width="40" height="20" as="geometry" />
        </mxCell>
        <mxCell id="_Rf_vzawGqCmXAYVloRy-157" value="UI3" style="text;html=1;align=center;verticalAlign=middle;whiteSpace=wrap;rounded=0;fontColor=#0a0a0a;fontStyle=1;strokeColor=none;" vertex="1" parent="1">
          <mxGeometry x="345" y="320" width="40" height="20" as="geometry" />
        </mxCell>
        <mxCell id="_Rf_vzawGqCmXAYVloRy-158" value="UI4" style="text;html=1;align=center;verticalAlign=middle;whiteSpace=wrap;rounded=0;fontColor=#0a0a0a;fontStyle=1;strokeColor=none;" vertex="1" parent="1">
          <mxGeometry x="405" y="320" width="40" height="20" as="geometry" />
        </mxCell>
        <mxCell id="_Rf_vzawGqCmXAYVloRy-159" value="UI5" style="text;html=1;align=center;verticalAlign=middle;whiteSpace=wrap;rounded=0;fontColor=#0a0a0a;fontStyle=1;strokeColor=none;" vertex="1" parent="1">
          <mxGeometry x="465" y="320" width="40" height="20" as="geometry" />
        </mxCell>
        <mxCell id="_Rf_vzawGqCmXAYVloRy-160" value="UI6" style="text;html=1;align=center;verticalAlign=middle;whiteSpace=wrap;rounded=0;fontColor=#0a0a0a;fontStyle=1;strokeColor=none;" vertex="1" parent="1">
          <mxGeometry x="525" y="320" width="40" height="20" as="geometry" />
        </mxCell>
        <mxCell id="_Rf_vzawGqCmXAYVloRy-161" value="UI7" style="text;html=1;align=center;verticalAlign=middle;whiteSpace=wrap;rounded=0;fontColor=#0a0a0a;fontStyle=1;strokeColor=none;" vertex="1" parent="1">
          <mxGeometry x="585" y="320" width="40" height="20" as="geometry" />
        </mxCell>
        <mxCell id="_Rf_vzawGqCmXAYVloRy-174" value="" style="endArrow=classic;html=1;rounded=0;strokeColor=#0a0a0a;strokeWidth=3;endFill=1;" edge="1" parent="1">
          <mxGeometry width="50" height="50" relative="1" as="geometry">
            <mxPoint x="655" y="290" as="sourcePoint" />
            <mxPoint x="675" y="250" as="targetPoint" />
          </mxGeometry>
        </mxCell>
        <mxCell id="_Rf_vzawGqCmXAYVloRy-175" value="" style="endArrow=none;html=1;rounded=0;strokeColor=#0a0a0a;strokeWidth=3;" edge="1" parent="1">
          <mxGeometry width="50" height="50" relative="1" as="geometry">
            <mxPoint x="675" y="250" as="sourcePoint" />
            <mxPoint x="715" y="250" as="targetPoint" />
          </mxGeometry>
        </mxCell>
        <mxCell id="_Rf_vzawGqCmXAYVloRy-176" value="" style="endArrow=none;html=1;rounded=0;strokeColor=#0a0a0a;strokeWidth=3;" edge="1" parent="1">
          <mxGeometry width="50" height="50" relative="1" as="geometry">
            <mxPoint x="735" y="290" as="sourcePoint" />
            <mxPoint x="715" y="250" as="targetPoint" />
          </mxGeometry>
        </mxCell>
        <mxCell id="_Rf_vzawGqCmXAYVloRy-177" value="" style="endArrow=none;html=1;rounded=0;strokeColor=#0a0a0a;strokeWidth=3;" edge="1" parent="1">
          <mxGeometry width="50" height="50" relative="1" as="geometry">
            <mxPoint x="735" y="290" as="sourcePoint" />
            <mxPoint x="775" y="290" as="targetPoint" />
          </mxGeometry>
        </mxCell>
        <mxCell id="_Rf_vzawGqCmXAYVloRy-178" value="" style="endArrow=none;html=1;rounded=0;strokeColor=#0a0a0a;strokeWidth=3;dashed=1;" edge="1" parent="1">
          <mxGeometry width="50" height="50" relative="1" as="geometry">
            <mxPoint x="676" y="290" as="sourcePoint" />
            <mxPoint x="656" y="250" as="targetPoint" />
          </mxGeometry>
        </mxCell>
        <mxCell id="_Rf_vzawGqCmXAYVloRy-179" value="" style="endArrow=none;html=1;rounded=0;strokeColor=#0a0a0a;strokeWidth=3;dashed=1;" edge="1" parent="1">
          <mxGeometry width="50" height="50" relative="1" as="geometry">
            <mxPoint x="676" y="290" as="sourcePoint" />
            <mxPoint x="716" y="290" as="targetPoint" />
          </mxGeometry>
        </mxCell>
        <mxCell id="_Rf_vzawGqCmXAYVloRy-180" value="" style="endArrow=none;html=1;rounded=0;strokeColor=#0a0a0a;strokeWidth=3;dashed=1;" edge="1" parent="1">
          <mxGeometry width="50" height="50" relative="1" as="geometry">
            <mxPoint x="716" y="290" as="sourcePoint" />
            <mxPoint x="736" y="250" as="targetPoint" />
          </mxGeometry>
        </mxCell>
        <mxCell id="_Rf_vzawGqCmXAYVloRy-181" value="" style="endArrow=none;html=1;rounded=0;strokeColor=#0a0a0a;strokeWidth=3;dashed=1;" edge="1" parent="1">
          <mxGeometry width="50" height="50" relative="1" as="geometry">
            <mxPoint x="735" y="250" as="sourcePoint" />
            <mxPoint x="775" y="250" as="targetPoint" />
          </mxGeometry>
        </mxCell>
        <mxCell id="_Rf_vzawGqCmXAYVloRy-182" value="" style="endArrow=classic;html=1;rounded=0;strokeColor=#0a0a0a;strokeWidth=3;endFill=1;" edge="1" parent="1">
          <mxGeometry width="50" height="50" relative="1" as="geometry">
            <mxPoint x="-66" y="290" as="sourcePoint" />
            <mxPoint x="-46" y="250" as="targetPoint" />
          </mxGeometry>
        </mxCell>
        <mxCell id="_Rf_vzawGqCmXAYVloRy-183" value="" style="endArrow=none;html=1;rounded=0;strokeColor=#0a0a0a;strokeWidth=3;" edge="1" parent="1">
          <mxGeometry width="50" height="50" relative="1" as="geometry">
            <mxPoint x="-46" y="250" as="sourcePoint" />
            <mxPoint x="-6" y="250" as="targetPoint" />
          </mxGeometry>
        </mxCell>
        <mxCell id="_Rf_vzawGqCmXAYVloRy-184" value="" style="endArrow=none;html=1;rounded=0;strokeColor=#0a0a0a;strokeWidth=3;" edge="1" parent="1">
          <mxGeometry width="50" height="50" relative="1" as="geometry">
            <mxPoint x="14" y="290" as="sourcePoint" />
            <mxPoint x="-6" y="250" as="targetPoint" />
          </mxGeometry>
        </mxCell>
        <mxCell id="_Rf_vzawGqCmXAYVloRy-185" value="" style="endArrow=none;html=1;rounded=0;strokeColor=#0a0a0a;strokeWidth=3;" edge="1" parent="1">
          <mxGeometry width="50" height="50" relative="1" as="geometry">
            <mxPoint x="14" y="290" as="sourcePoint" />
            <mxPoint x="54" y="290" as="targetPoint" />
          </mxGeometry>
        </mxCell>
        <mxCell id="_Rf_vzawGqCmXAYVloRy-186" value="" style="endArrow=none;html=1;rounded=0;strokeColor=#0a0a0a;strokeWidth=3;dashed=1;" edge="1" parent="1">
          <mxGeometry width="50" height="50" relative="1" as="geometry">
            <mxPoint x="-45" y="290" as="sourcePoint" />
            <mxPoint x="-65" y="250" as="targetPoint" />
          </mxGeometry>
        </mxCell>
        <mxCell id="_Rf_vzawGqCmXAYVloRy-187" value="" style="endArrow=none;html=1;rounded=0;strokeColor=#0a0a0a;strokeWidth=3;dashed=1;" edge="1" parent="1">
          <mxGeometry width="50" height="50" relative="1" as="geometry">
            <mxPoint x="-45" y="290" as="sourcePoint" />
            <mxPoint x="-5" y="290" as="targetPoint" />
          </mxGeometry>
        </mxCell>
        <mxCell id="_Rf_vzawGqCmXAYVloRy-188" value="" style="endArrow=none;html=1;rounded=0;strokeColor=#0a0a0a;strokeWidth=3;dashed=1;" edge="1" parent="1">
          <mxGeometry width="50" height="50" relative="1" as="geometry">
            <mxPoint x="-5" y="290" as="sourcePoint" />
            <mxPoint x="15" y="250" as="targetPoint" />
          </mxGeometry>
        </mxCell>
        <mxCell id="_Rf_vzawGqCmXAYVloRy-189" value="" style="endArrow=none;html=1;rounded=0;strokeColor=#0a0a0a;strokeWidth=3;dashed=1;" edge="1" parent="1">
          <mxGeometry width="50" height="50" relative="1" as="geometry">
            <mxPoint x="14" y="250" as="sourcePoint" />
            <mxPoint x="54" y="250" as="targetPoint" />
          </mxGeometry>
        </mxCell>
        <mxCell id="_Rf_vzawGqCmXAYVloRy-190" value="" style="endArrow=classic;html=1;rounded=0;strokeColor=#0a0a0a;strokeWidth=3;endFill=1;" edge="1" parent="1">
          <mxGeometry width="50" height="50" relative="1" as="geometry">
            <mxPoint x="54" y="290" as="sourcePoint" />
            <mxPoint x="74" y="250" as="targetPoint" />
          </mxGeometry>
        </mxCell>
        <mxCell id="_Rf_vzawGqCmXAYVloRy-191" value="" style="endArrow=none;html=1;rounded=0;strokeColor=#0a0a0a;strokeWidth=3;" edge="1" parent="1">
          <mxGeometry width="50" height="50" relative="1" as="geometry">
            <mxPoint x="74" y="250" as="sourcePoint" />
            <mxPoint x="114" y="250" as="targetPoint" />
          </mxGeometry>
        </mxCell>
        <mxCell id="_Rf_vzawGqCmXAYVloRy-192" value="" style="endArrow=none;html=1;rounded=0;strokeColor=#0a0a0a;strokeWidth=3;" edge="1" parent="1">
          <mxGeometry width="50" height="50" relative="1" as="geometry">
            <mxPoint x="134" y="290" as="sourcePoint" />
            <mxPoint x="114" y="250" as="targetPoint" />
          </mxGeometry>
        </mxCell>
        <mxCell id="_Rf_vzawGqCmXAYVloRy-193" value="" style="endArrow=none;html=1;rounded=0;strokeColor=#0a0a0a;strokeWidth=3;dashed=1;" edge="1" parent="1">
          <mxGeometry width="50" height="50" relative="1" as="geometry">
            <mxPoint x="75" y="290" as="sourcePoint" />
            <mxPoint x="55" y="250" as="targetPoint" />
          </mxGeometry>
        </mxCell>
        <mxCell id="_Rf_vzawGqCmXAYVloRy-194" value="" style="endArrow=none;html=1;rounded=0;strokeColor=#0a0a0a;strokeWidth=3;dashed=1;" edge="1" parent="1">
          <mxGeometry width="50" height="50" relative="1" as="geometry">
            <mxPoint x="75" y="290" as="sourcePoint" />
            <mxPoint x="115" y="290" as="targetPoint" />
          </mxGeometry>
        </mxCell>
        <mxCell id="_Rf_vzawGqCmXAYVloRy-195" value="" style="endArrow=none;html=1;rounded=0;strokeColor=#0a0a0a;strokeWidth=3;dashed=1;" edge="1" parent="1">
          <mxGeometry width="50" height="50" relative="1" as="geometry">
            <mxPoint x="115" y="290" as="sourcePoint" />
            <mxPoint x="135" y="250" as="targetPoint" />
          </mxGeometry>
        </mxCell>
        <mxCell id="_Rf_vzawGqCmXAYVloRy-197" value="" style="endArrow=none;html=1;rounded=0;strokeColor=#160160;strokeWidth=3;" edge="1" parent="1">
          <mxGeometry width="50" height="50" relative="1" as="geometry">
            <mxPoint x="-60" y="310" as="sourcePoint" />
            <mxPoint x="144" y="310" as="targetPoint" />
          </mxGeometry>
        </mxCell>
        <mxCell id="_Rf_vzawGqCmXAYVloRy-198" value="" style="endArrow=none;html=1;rounded=0;strokeColor=#160160;strokeWidth=3;" edge="1" parent="1">
          <mxGeometry width="50" height="50" relative="1" as="geometry">
            <mxPoint x="645" y="310" as="sourcePoint" />
            <mxPoint x="849" y="310" as="targetPoint" />
          </mxGeometry>
        </mxCell>
        <mxCell id="_Rf_vzawGqCmXAYVloRy-199" value="" style="endArrow=none;html=1;rounded=0;fillColor=#f8cecc;strokeColor=#b85450;strokeWidth=5;" edge="1" parent="1">
          <mxGeometry width="50" height="50" relative="1" as="geometry">
            <mxPoint x="41" y="440" as="sourcePoint" />
            <mxPoint x="42" y="400" as="targetPoint" />
          </mxGeometry>
        </mxCell>
        <mxCell id="_Rf_vzawGqCmXAYVloRy-200" value="" style="endArrow=none;html=1;rounded=0;fillColor=#f8cecc;strokeColor=#b85450;strokeWidth=5;" edge="1" parent="1">
          <mxGeometry width="50" height="50" relative="1" as="geometry">
            <mxPoint x="540" y="440" as="sourcePoint" />
            <mxPoint x="541" y="400" as="targetPoint" />
          </mxGeometry>
        </mxCell>
        <mxCell id="_Rf_vzawGqCmXAYVloRy-201" value="" style="endArrow=none;html=1;rounded=0;fillColor=#f8cecc;strokeColor=#b85450;strokeWidth=5;" edge="1" parent="1">
          <mxGeometry width="50" height="50" relative="1" as="geometry">
            <mxPoint x="42" y="400" as="sourcePoint" />
            <mxPoint x="541" y="400" as="targetPoint" />
          </mxGeometry>
        </mxCell>
        <mxCell id="_Rf_vzawGqCmXAYVloRy-202" value="" style="endArrow=none;html=1;rounded=0;fillColor=#f8cecc;strokeColor=#b85450;strokeWidth=5;" edge="1" parent="1">
          <mxGeometry width="50" height="50" relative="1" as="geometry">
            <mxPoint x="540" y="440" as="sourcePoint" />
            <mxPoint x="640" y="440" as="targetPoint" />
          </mxGeometry>
        </mxCell>
        <mxCell id="_Rf_vzawGqCmXAYVloRy-203" value="" style="endArrow=none;html=1;rounded=0;fillColor=#f8cecc;strokeColor=#b85450;strokeWidth=5;" edge="1" parent="1">
          <mxGeometry width="50" height="50" relative="1" as="geometry">
            <mxPoint x="-40" y="440" as="sourcePoint" />
            <mxPoint x="39" y="440" as="targetPoint" />
          </mxGeometry>
        </mxCell>
        <mxCell id="_Rf_vzawGqCmXAYVloRy-204" value="" style="endArrow=none;html=1;rounded=0;fillColor=#d5e8d4;strokeColor=#82b366;strokeWidth=5;" edge="1" parent="1">
          <mxGeometry width="50" height="50" relative="1" as="geometry">
            <mxPoint x="141" y="520" as="sourcePoint" />
            <mxPoint x="142" y="480" as="targetPoint" />
          </mxGeometry>
        </mxCell>
        <mxCell id="_Rf_vzawGqCmXAYVloRy-205" value="" style="endArrow=none;html=1;rounded=0;fillColor=#d5e8d4;strokeColor=#82b366;strokeWidth=5;" edge="1" parent="1">
          <mxGeometry width="50" height="50" relative="1" as="geometry">
            <mxPoint x="640" y="520" as="sourcePoint" />
            <mxPoint x="641" y="480" as="targetPoint" />
          </mxGeometry>
        </mxCell>
        <mxCell id="_Rf_vzawGqCmXAYVloRy-206" value="" style="endArrow=none;html=1;rounded=0;fillColor=#d5e8d4;strokeColor=#82b366;strokeWidth=5;" edge="1" parent="1">
          <mxGeometry width="50" height="50" relative="1" as="geometry">
            <mxPoint x="142" y="480" as="sourcePoint" />
            <mxPoint x="641" y="480" as="targetPoint" />
          </mxGeometry>
        </mxCell>
        <mxCell id="_Rf_vzawGqCmXAYVloRy-207" value="" style="endArrow=none;html=1;rounded=0;fillColor=#d5e8d4;strokeColor=#82b366;strokeWidth=5;" edge="1" parent="1">
          <mxGeometry width="50" height="50" relative="1" as="geometry">
            <mxPoint x="640" y="520" as="sourcePoint" />
            <mxPoint x="720" y="520" as="targetPoint" />
          </mxGeometry>
        </mxCell>
        <mxCell id="_Rf_vzawGqCmXAYVloRy-208" value="" style="endArrow=none;html=1;rounded=0;fillColor=#d5e8d4;strokeColor=#82b366;strokeWidth=5;" edge="1" parent="1">
          <mxGeometry width="50" height="50" relative="1" as="geometry">
            <mxPoint x="40" y="520" as="sourcePoint" />
            <mxPoint x="139" y="520" as="targetPoint" />
          </mxGeometry>
        </mxCell>
        <mxCell id="_Rf_vzawGqCmXAYVloRy-209" value="" style="endArrow=none;html=1;rounded=0;fillColor=#f8cecc;strokeColor=#b85450;strokeWidth=5;" edge="1" parent="1">
          <mxGeometry width="50" height="50" relative="1" as="geometry">
            <mxPoint x="256" y="601" as="sourcePoint" />
            <mxPoint x="257" y="561" as="targetPoint" />
          </mxGeometry>
        </mxCell>
        <mxCell id="_Rf_vzawGqCmXAYVloRy-210" value="" style="endArrow=none;html=1;rounded=0;fillColor=#f8cecc;strokeColor=#b85450;strokeWidth=5;" edge="1" parent="1">
          <mxGeometry width="50" height="50" relative="1" as="geometry">
            <mxPoint x="755" y="601" as="sourcePoint" />
            <mxPoint x="756" y="561" as="targetPoint" />
          </mxGeometry>
        </mxCell>
        <mxCell id="_Rf_vzawGqCmXAYVloRy-211" value="" style="endArrow=none;html=1;rounded=0;fillColor=#f8cecc;strokeColor=#b85450;strokeWidth=5;" edge="1" parent="1">
          <mxGeometry width="50" height="50" relative="1" as="geometry">
            <mxPoint x="257" y="561" as="sourcePoint" />
            <mxPoint x="756" y="561" as="targetPoint" />
          </mxGeometry>
        </mxCell>
        <mxCell id="_Rf_vzawGqCmXAYVloRy-212" value="" style="endArrow=none;html=1;rounded=0;fillColor=#f8cecc;strokeColor=#b85450;strokeWidth=5;" edge="1" parent="1">
          <mxGeometry width="50" height="50" relative="1" as="geometry">
            <mxPoint x="755" y="601" as="sourcePoint" />
            <mxPoint x="840" y="600" as="targetPoint" />
          </mxGeometry>
        </mxCell>
        <mxCell id="_Rf_vzawGqCmXAYVloRy-213" value="" style="endArrow=none;html=1;rounded=0;fillColor=#f8cecc;strokeColor=#b85450;strokeWidth=5;" edge="1" parent="1">
          <mxGeometry width="50" height="50" relative="1" as="geometry">
            <mxPoint x="180" y="601" as="sourcePoint" />
            <mxPoint x="254" y="601" as="targetPoint" />
          </mxGeometry>
        </mxCell>
        <mxCell id="_Rf_vzawGqCmXAYVloRy-214" value="DQS Gate Early" style="text;html=1;align=center;verticalAlign=middle;whiteSpace=wrap;rounded=0;fontStyle=1;fillColor=#f8cecc;strokeColor=#b85450;" vertex="1" parent="1">
          <mxGeometry x="-160" y="400" width="100" height="40" as="geometry" />
        </mxCell>
        <mxCell id="_Rf_vzawGqCmXAYVloRy-215" value="DQS Gate Late" style="text;html=1;align=center;verticalAlign=middle;whiteSpace=wrap;rounded=0;fontStyle=1;fillColor=#f8cecc;strokeColor=#b85450;" vertex="1" parent="1">
          <mxGeometry x="-160" y="561" width="100" height="39" as="geometry" />
        </mxCell>
        <mxCell id="_Rf_vzawGqCmXAYVloRy-216" value="DQS Gate Perfectly Timed" style="text;html=1;align=center;verticalAlign=middle;whiteSpace=wrap;rounded=0;fontStyle=1;fillColor=#d5e8d4;strokeColor=#82b366;" vertex="1" parent="1">
          <mxGeometry x="-160" y="480" width="100" height="40" as="geometry" />
        </mxCell>
        <mxCell id="_Rf_vzawGqCmXAYVloRy-217" value="" style="endArrow=none;dashed=1;html=1;dashPattern=1 3;strokeWidth=2;rounded=0;" edge="1" parent="1">
          <mxGeometry width="50" height="50" relative="1" as="geometry">
            <mxPoint x="184.5" y="640" as="sourcePoint" />
            <mxPoint x="184.5" y="200" as="targetPoint" />
          </mxGeometry>
        </mxCell>
        <mxCell id="_Rf_vzawGqCmXAYVloRy-218" value="" style="endArrow=none;dashed=1;html=1;dashPattern=1 3;strokeWidth=2;rounded=0;" edge="1" parent="1">
          <mxGeometry width="50" height="50" relative="1" as="geometry">
            <mxPoint x="244.5" y="640" as="sourcePoint" />
            <mxPoint x="244.5" y="200" as="targetPoint" />
          </mxGeometry>
        </mxCell>
        <mxCell id="_Rf_vzawGqCmXAYVloRy-219" value="" style="endArrow=none;dashed=1;html=1;dashPattern=1 3;strokeWidth=2;rounded=0;" edge="1" parent="1">
          <mxGeometry width="50" height="50" relative="1" as="geometry">
            <mxPoint x="306" y="640" as="sourcePoint" />
            <mxPoint x="306" y="200" as="targetPoint" />
          </mxGeometry>
        </mxCell>
        <mxCell id="_Rf_vzawGqCmXAYVloRy-220" value="" style="endArrow=none;dashed=1;html=1;dashPattern=1 3;strokeWidth=2;rounded=0;" edge="1" parent="1">
          <mxGeometry width="50" height="50" relative="1" as="geometry">
            <mxPoint x="366" y="640" as="sourcePoint" />
            <mxPoint x="366" y="200" as="targetPoint" />
          </mxGeometry>
        </mxCell>
        <mxCell id="_Rf_vzawGqCmXAYVloRy-221" value="" style="endArrow=none;dashed=1;html=1;dashPattern=1 3;strokeWidth=2;rounded=0;" edge="1" parent="1">
          <mxGeometry width="50" height="50" relative="1" as="geometry">
            <mxPoint x="425" y="640" as="sourcePoint" />
            <mxPoint x="425" y="200" as="targetPoint" />
          </mxGeometry>
        </mxCell>
        <mxCell id="_Rf_vzawGqCmXAYVloRy-222" value="" style="endArrow=none;dashed=1;html=1;dashPattern=1 3;strokeWidth=2;rounded=0;" edge="1" parent="1">
          <mxGeometry width="50" height="50" relative="1" as="geometry">
            <mxPoint x="485" y="640" as="sourcePoint" />
            <mxPoint x="485" y="200" as="targetPoint" />
          </mxGeometry>
        </mxCell>
        <mxCell id="_Rf_vzawGqCmXAYVloRy-223" value="" style="endArrow=none;dashed=1;html=1;dashPattern=1 3;strokeWidth=2;rounded=0;" edge="1" parent="1">
          <mxGeometry width="50" height="50" relative="1" as="geometry">
            <mxPoint x="546" y="640" as="sourcePoint" />
            <mxPoint x="546" y="200" as="targetPoint" />
          </mxGeometry>
        </mxCell>
        <mxCell id="_Rf_vzawGqCmXAYVloRy-224" value="" style="endArrow=none;dashed=1;html=1;dashPattern=1 3;strokeWidth=2;rounded=0;" edge="1" parent="1">
          <mxGeometry width="50" height="50" relative="1" as="geometry">
            <mxPoint x="606" y="640" as="sourcePoint" />
            <mxPoint x="606" y="200" as="targetPoint" />
          </mxGeometry>
        </mxCell>
        <mxCell id="_Rf_vzawGqCmXAYVloRy-225" value="" style="endArrow=none;dashed=1;html=1;dashPattern=1 3;strokeWidth=2;rounded=0;" edge="1" parent="1">
          <mxGeometry width="50" height="50" relative="1" as="geometry">
            <mxPoint x="667" y="640" as="sourcePoint" />
            <mxPoint x="667" y="200" as="targetPoint" />
          </mxGeometry>
        </mxCell>
        <mxCell id="_Rf_vzawGqCmXAYVloRy-226" value="" style="endArrow=none;dashed=1;html=1;dashPattern=1 3;strokeWidth=2;rounded=0;" edge="1" parent="1">
          <mxGeometry width="50" height="50" relative="1" as="geometry">
            <mxPoint x="4" y="640" as="sourcePoint" />
            <mxPoint x="4" y="200" as="targetPoint" />
          </mxGeometry>
        </mxCell>
        <mxCell id="_Rf_vzawGqCmXAYVloRy-227" value="" style="endArrow=none;dashed=1;html=1;dashPattern=1 3;strokeWidth=2;rounded=0;" edge="1" parent="1">
          <mxGeometry width="50" height="50" relative="1" as="geometry">
            <mxPoint x="64" y="640" as="sourcePoint" />
            <mxPoint x="64" y="200" as="targetPoint" />
          </mxGeometry>
        </mxCell>
        <mxCell id="_Rf_vzawGqCmXAYVloRy-228" value="" style="endArrow=none;dashed=1;html=1;dashPattern=1 3;strokeWidth=2;rounded=0;" edge="1" parent="1">
          <mxGeometry width="50" height="50" relative="1" as="geometry">
            <mxPoint x="125.5" y="640" as="sourcePoint" />
            <mxPoint x="125.5" y="200" as="targetPoint" />
          </mxGeometry>
        </mxCell>
        <mxCell id="_Rf_vzawGqCmXAYVloRy-229" value="" style="endArrow=none;dashed=1;html=1;dashPattern=1 3;strokeWidth=2;rounded=0;" edge="1" parent="1">
          <mxGeometry width="50" height="50" relative="1" as="geometry">
            <mxPoint x="726" y="640" as="sourcePoint" />
            <mxPoint x="726" y="200" as="targetPoint" />
          </mxGeometry>
        </mxCell>
      </root>
    </mxGraphModel>
  </diagram>
</mxfile>
